# xmcd
#
# Track frame offsets:
#	150
#	12714
#	29434
#	44785
#	62892
#	78520
#	100901
#	112786
#	129136
#	143288
#	157890
#	170892
#	182869
#
# Disc length: 2654 seconds
# Revision: 1
# Processed by: cddbd v1.5.2PL0 Copyright (c) Steve Scherf et al.
# Submitted via: dBpowerAMP V12.0
#
DISCID=ab0a5c0d
DTITLE=Del McCoury Band - The Streets of Baltimore
DYEAR=2013
DGENRE=Country
TTITLE0=Blues Rollin' In
TTITLE1=Big Blue Raindrops
TTITLE2=Amnesia
TTITLE3=Butler Brothers
TTITLE4=Misty
TTITLE5=I Need More Time
TTITLE6=Free Salvation
TTITLE7=I Wanna Go Where You Go
TTITLE8=I'd Love to Do Some Living
TTITLE9=Streets of Baltimore
TTITLE10=Once More with Feeling
TTITLE11=Too Many Rivers
TTITLE12=Only You
EXTD=
EXTT0=
EXTT1=
EXTT2=
EXTT3=
EXTT4=
EXTT5=
EXTT6=
EXTT7=
EXTT8=
EXTT9=
EXTT10=
EXTT11=
EXTT12=
PLAYORDER=
